# Blender v2.58 (sub 0) OBJ File: ''
# www.blender.org
mtllib bunny.mtl
o Floor
v -97.016136 0.000000 101.378967
v 102.983864 0.000000 101.378967
v -97.016136 0.000000 -98.621033
v 102.983864 0.000000 -98.621033
vn 0.000000 1.000000 0.000000
usemtl Floor_mat
s off
# f 3//1 1//1 4//1
# f 1//1 2//1 4//1
o Bunny
v 1.822395 3.931010 6.475815
v 1.860405 3.758652 6.490798
v 1.890199 3.478113 6.667497
v 1.986525 3.487997 6.662638
v 1.918931 3.508478 6.667707
v 1.822655 3.509156 6.623300
v 1.904684 3.754322 6.592337
v 1.858255 3.538686 6.616712
v 1.926011 3.554177 6.679857
v 1.783402 3.580166 6.634604
v 1.936636 3.594458 6.688466
v 1.804386 3.761899 6.554420
v 1.811945 3.610280 6.634291
v 1.851229 3.625665 6.638805
v 1.981133 3.781607 6.550429
v 2.000835 3.638025 6.673210
v 1.688329 3.864061 6.489710
v 1.751332 3.650976 6.642399
v 2.092854 3.689461 6.468993
v 1.792917 3.644257 6.405387
v 1.712172 3.737761 6.671311
v 1.822675 3.695053 6.618206
v 1.876103 3.695577 6.630364
v 1.993715 3.695471 6.629816
v 1.758459 3.709803 6.613660
v 2.044934 3.464088 6.623367
v 1.750264 3.623314 6.408525
v 1.861610 3.872106 6.477639
v 1.769912 3.475669 6.637455
v 2.125242 3.501143 6.595891
v 2.010182 3.523980 6.661487
v 2.067216 3.544048 6.631360
v 1.737720 3.801004 6.611738
v 2.006826 3.577509 6.675920
v 2.073699 3.592503 6.634913
v 2.051748 3.720250 6.603653
v 1.628375 3.746708 6.579906
v 2.065128 3.649672 6.635405
v 1.644487 3.712366 6.515936
v 2.128141 3.467104 6.501436
v 2.059223 3.505121 6.412156
v 2.120075 3.645889 6.533109
v 2.081296 3.512232 6.444310
v 1.738783 3.861773 6.423518
v 1.738453 3.872701 6.359310
v 1.773883 3.829405 6.544518
v 1.631376 3.775544 6.519158
v 2.072439 3.576773 6.412330
v 2.089193 3.608301 6.423018
v 1.641837 3.654617 6.548275
v 1.679992 3.686089 6.455573
v 1.688231 3.848303 6.429596
v 1.931533 3.668094 6.659952
v 2.090976 3.712055 6.530024
v 1.660320 3.855175 6.585065
v 1.954332 3.778075 6.489270
v 1.876260 3.759454 6.554081
v 2.121459 3.566810 6.561201
v 1.724010 3.439745 6.585435
v 1.704641 3.439849 6.515037
v 1.737687 3.449389 6.637847
v 1.648866 3.785937 6.645520
v 1.728144 3.469125 6.521129
v 1.700268 3.843805 6.367238
v 1.631010 3.751616 6.634058
v 1.879057 3.622480 6.678088
v 1.674191 3.820201 6.644454
v 1.864111 3.665621 6.397156
v 1.746289 3.704773 6.424222
v 1.680803 3.620305 6.613783
v 1.656492 3.681598 6.575803
v 1.693474 3.677909 6.614449
v 1.872350 3.566233 6.646351
v 1.807015 3.690356 6.409338
v 1.723996 3.923108 6.272110
v 1.679433 3.922345 6.329254
v 1.634789 3.839424 6.568626
v 1.850710 3.490411 6.410048
v 1.775417 3.498066 6.563290
v 1.761988 3.504082 6.513589
v 1.638369 3.809573 6.536761
v 1.786954 3.909015 6.472054
v 1.676390 3.565303 6.516648
v 1.874252 3.705219 6.410213
v 1.690485 3.573121 6.459092
v 1.644637 3.625495 6.512840
v 1.677325 3.632627 6.448450
v 1.858221 3.625554 6.362854
v 1.804774 3.738336 6.432686
v 1.932033 3.721882 6.420887
v 2.017877 3.737812 6.439022
v 1.995933 3.638641 6.373620
v 1.904127 3.969716 6.388923
v 1.755245 3.869554 6.483541
v 1.992193 3.714437 6.414412
v 2.121116 3.556780 6.488597
v 1.937618 3.674897 6.399302
v 2.052570 3.667090 6.415032
v 2.076800 3.680757 6.436191
v 1.757945 3.466980 6.454907
v 1.937375 3.649661 6.361768
v 2.157911 3.565666 6.500997
v 2.105558 3.532672 6.469526
v 2.016330 3.655798 6.398404
v 2.028050 3.759950 6.479347
v 1.850380 3.745817 6.453382
v 1.932264 3.765111 6.460231
v 1.907811 3.443193 6.388410
v 1.850701 3.459505 6.375526
v 2.021747 3.494419 6.391885
v 1.975370 3.495550 6.377919
v 1.859454 3.918603 6.418609
v 1.911096 3.501271 6.366718
v 1.790222 3.498487 6.449491
v 1.715402 3.562915 6.603213
v 1.752845 3.796573 6.462024
v 1.996454 3.551519 6.372058
v 1.925178 3.557744 6.353403
v 1.868043 3.562246 6.357256
v 1.821862 3.556432 6.427368
v 1.757740 3.561212 6.430741
v 2.021260 3.581137 6.380146
v 1.710230 3.861416 6.308044
v 1.685858 3.744306 6.457280
v 1.921233 3.618641 6.345555
v 1.710557 3.786283 6.452490
v 1.958632 3.434358 6.405511
v 1.811006 3.434802 6.382833
v 1.992025 3.436074 6.430678
v 2.026854 3.438332 6.462310
v 1.817397 3.436099 6.435953
v 2.092445 3.451246 6.490779
v 1.968756 3.438923 6.490114
v 1.881849 3.450393 6.468778
v 1.721913 3.434118 6.457832
v 2.034322 3.441813 6.513934
v 1.812131 3.433237 6.496269
v 2.051365 3.439838 6.558277
v 1.846622 3.434283 6.528098
v 2.092401 3.453196 6.561069
v 1.907172 3.450216 6.532523
v 1.960903 3.442309 6.550576
v 2.112341 3.472387 6.580381
v 1.965929 3.453596 6.593040
v 1.786727 3.434192 6.579557
v 1.834879 3.436383 6.587756
v 1.692183 3.708060 6.642930
v 1.751894 3.565634 6.621278
v 1.985651 3.442712 6.645289
v 1.895157 3.437753 6.643376
v 1.703834 3.551162 6.567211
v 1.836431 3.437847 6.643215
v 1.824565 3.851514 6.466342
v 1.777882 3.812346 6.488755
v 1.917083 3.911071 6.402088
vn -0.674677 0.720585 0.159899
vn -0.085773 0.996275 0.008863
vn 0.267312 0.902823 0.336830
vn -0.966143 -0.218240 -0.137617
vn -0.607605 0.459854 -0.647574
vn -0.974328 -0.206739 0.089131
vn -0.530971 0.646759 -0.547515
vn -0.233572 0.202233 0.951076
vn 0.362848 -0.249785 -0.897747
vn -0.350924 0.631315 -0.691588
vn -0.235483 0.957899 0.164249
vn -0.149928 -0.855392 0.495808
vn -0.844559 -0.462606 -0.269660
vn -0.345889 0.926113 -0.150585
vn 0.429832 -0.330244 0.840347
vn -0.002332 0.437478 -0.899226
vn -0.435571 0.778956 -0.451116
vn 0.392600 0.188431 0.900199
vn 0.113338 0.607775 0.785980
vn -0.038134 -0.356859 0.933380
vn 0.442206 -0.491055 -0.750546
vn 0.385800 0.386847 -0.837561
vn -0.557090 -0.582748 0.591655
vn -0.339339 -0.119813 0.933003
vn 0.684431 0.324855 0.652704
vn -0.628378 -0.405373 -0.663938
vn 0.366769 0.372122 0.852646
vn -0.529987 -0.326200 0.782757
vn 0.699412 -0.631243 0.335194
vn -0.619817 0.762786 0.184351
vn -0.790289 0.025735 0.612193
vn 0.110916 -0.252237 0.961288
vn 0.639391 0.721631 0.265385
vn -0.076978 0.979042 0.188550
vn 0.364435 0.372758 0.853369
vn 0.085489 -0.070691 0.993828
vn -0.256865 -0.288806 0.922286
vn -0.158811 0.117854 0.980250
vn -0.002763 0.283550 0.958953
vn 0.111392 0.701843 0.703568
vn 0.132784 0.201105 0.970528
vn 0.124562 -0.238682 0.963076
vn -0.088307 -0.027959 0.995701
vn 0.077567 0.282044 0.956261
vn 0.149230 0.681820 0.716137
vn 0.156936 -0.138578 0.977838
vn 0.212293 -0.038090 0.976463
vn 0.763799 0.520315 0.381947
vn 0.820402 0.306325 -0.482810
vn -0.142649 0.074618 0.986957
vn -0.586604 0.621523 0.519234
vn -0.880095 -0.200607 -0.430337
vn 0.094278 0.632320 0.768950
vn -0.216847 -0.964499 0.150731
vn -0.025333 0.246665 0.968770
vn -0.151798 0.757967 0.634384
vn -0.775731 -0.129482 -0.617637
vn 0.015398 -0.999751 0.016153
vn -0.926823 -0.269885 0.261078
vn -0.192983 0.530926 0.825152
vn -0.473136 -0.056511 0.879175
vn -0.568482 -0.127995 0.812678
vn 0.844727 -0.135594 -0.517735
vn 0.116353 0.546263 0.829493
vn 0.165648 -0.163473 0.972542
vn -0.137123 0.584436 0.799770
vn -0.005137 -0.256188 0.966613
vn -0.241819 -0.141374 0.959967
vn -0.315715 0.323526 0.891995
vn -0.176713 0.026555 0.983904
vn 0.248462 0.364703 0.897362
vn 0.448530 -0.757594 0.474208
vn 0.890487 0.449142 -0.072837
vn -0.583809 -0.808256 -0.076749
vn 0.326718 0.748221 0.577426
vn 0.512206 0.470138 0.718759
vn 0.134895 -0.516564 0.845556
vn 0.365521 -0.435929 0.822411
vn 0.717153 0.301953 0.628105
vn -0.082763 -0.983684 0.159736
vn 0.783414 0.015851 0.621298
vn 0.720942 0.407931 0.560210
vn 0.457110 -0.273438 0.846334
vn -0.177347 0.532981 0.827332
vn 0.911759 0.382992 0.148365
vn 0.284259 0.197981 0.938083
vn 0.891836 -0.372255 -0.257011
vn 0.193596 -0.026043 -0.980736
vn 0.910985 0.395124 -0.118249
vn 0.624603 0.299852 0.721082
vn 0.374025 -0.700236 -0.608091
vn 0.539621 -0.133162 0.831311
vn -0.176103 -0.210709 0.961556
vn 0.182041 -0.088341 0.979315
vn -0.359069 -0.931476 -0.058491
vn 0.519973 -0.252962 0.815867
vn 0.506198 0.088527 0.857862
vn 0.875746 0.127282 0.465691
vn 0.817119 0.305368 0.488945
vn 0.529013 -0.657146 -0.536940
vn 0.843783 0.344933 0.411159
vn 0.209715 0.433938 0.876195
vn -0.156716 -0.888804 -0.430658
vn 0.324336 0.595435 0.735026
vn 0.374938 -0.821642 0.429333
vn 0.510671 -0.193839 0.837640
vn 0.593067 -0.358118 0.721126
vn 0.805122 -0.149805 0.573879
vn 0.544138 -0.202486 0.814195
vn 0.852883 0.187958 0.487095
vn 0.669720 0.376671 0.639995
vn 0.709605 0.407018 0.575149
vn 0.496687 0.067014 0.865339
vn 0.003701 0.673082 -0.739559
vn 0.127804 0.704324 0.698279
vn 0.030309 -0.503438 -0.863499
vn -0.962986 -0.107568 0.247160
vn -0.213811 0.614066 0.759742
vn -0.841023 -0.448657 0.302303
vn 0.524158 -0.094619 -0.846349
vn 0.456127 -0.142130 -0.878491
vn -0.268639 -0.761436 -0.589956
vn -0.933178 0.207251 0.293643
vn 0.711236 -0.615260 0.339998
vn -0.779650 0.188846 0.597062
vn -0.891481 0.103244 -0.441137
vn 0.493860 -0.662385 -0.563337
vn 0.284885 -0.926522 0.245758
vn -0.920249 0.263541 -0.289287
vn 0.539318 -0.639233 -0.548194
vn 0.474178 0.794021 0.380376
vn 0.824293 -0.240026 -0.512766
vn 0.453607 -0.736920 -0.501189
vn 0.837951 -0.100159 0.536475
vn 0.770360 -0.204656 -0.603872
vn 0.830228 -0.151823 -0.536349
vn 0.933857 0.212080 -0.287982
vn 0.548310 -0.463767 -0.695899
vn 0.981479 -0.148511 0.121006
vn 0.820414 0.380701 0.426600
vn -0.223291 0.945313 0.237750
vn 0.840758 0.194237 0.505369
vn 0.689624 0.494840 0.528726
vn -0.137784 0.341796 -0.929619
vn 0.906758 -0.420848 0.026011
vn 0.799892 -0.505328 -0.323753
vn 0.911707 0.410758 -0.008214
vn 0.928309 0.358261 -0.099460
vn -0.292980 -0.677806 0.674345
vn -0.809530 -0.235960 -0.537572
vn -0.983499 0.178110 0.031709
vn 0.507189 0.764369 -0.398121
vn 0.457280 0.797419 0.393724
vn 0.345263 0.828861 0.440207
vn -0.982517 0.182257 0.037978
vn 0.494015 0.774313 0.395460
vn 0.596471 0.633492 0.492859
vn -0.075134 0.994670 0.070621
vn 0.340138 0.842895 0.416935
vn -0.493702 0.867258 -0.064197
vn 0.699605 0.676825 -0.229044
vn -0.995699 -0.023856 -0.089518
vn 0.487844 0.678560 0.549149
vn 0.505572 0.623489 0.596372
vn 0.546024 0.830876 0.107251
vn -0.846350 -0.269356 -0.459498
vn -0.497532 0.792262 -0.353246
vn -0.810858 -0.167183 0.560856
vn 0.068061 0.977898 -0.197696
vn -0.405739 0.135610 -0.903873
vn 0.371361 0.762368 0.529988
vn -0.496347 -0.867344 0.036788
vn -0.729847 -0.489351 0.477345
vn -0.504747 -0.499385 0.704162
vn -0.258028 -0.073076 -0.963370
vn -0.699747 0.532035 0.476752
vn -0.555572 -0.714531 -0.425188
vn -0.206349 0.188601 0.960130
vn -0.489058 -0.257217 -0.833464
vn -0.264692 -0.178744 0.947622
vn -0.545771 -0.278481 -0.790305
vn 0.038165 -0.998361 0.042655
vn -0.774464 -0.180390 -0.606353
vn 0.852950 0.473911 0.218825
vn -0.698626 -0.324734 0.637550
vn -0.638555 0.294610 -0.710952
vn -0.547978 -0.020071 -0.836252
vn -0.877123 -0.063432 0.476059
vn -0.002221 0.268583 0.963254
vn -0.442851 -0.012762 0.896504
vn 0.616954 -0.767422 0.174445
vn -0.486931 0.221333 -0.844932
vn -0.428255 -0.888663 -0.163941
vn -0.746631 -0.658277 0.095990
vn -0.865687 0.322533 0.382830
vn -0.664773 0.550713 0.504770
vn 0.264456 -0.048302 0.963187
vn -0.820077 -0.532836 0.208707
vn -0.867070 -0.036020 0.496883
vn -0.695406 -0.340190 0.632993
vn -0.895369 -0.362565 -0.258574
vn -0.818210 0.370836 -0.439332
vn 0.259945 0.800564 -0.539931
vn -0.547953 -0.011056 -0.836436
vn -0.466691 -0.447868 -0.762636
vn -0.336944 0.371534 -0.865119
vn -0.933188 -0.323378 -0.156802
vn -0.184793 0.472240 -0.861882
vn -0.756862 -0.382143 -0.530213
vn -0.900104 -0.374684 -0.222316
vn -0.490618 0.602020 -0.629973
vn 0.341442 0.700238 -0.626964
vn -0.769087 -0.282226 -0.573457
vn -0.318000 0.706423 -0.632330
vn 0.548300 0.306482 0.778098
vn -0.808611 -0.209061 -0.549947
vn 0.046454 0.699626 -0.712997
vn -0.756247 0.334329 -0.562419
vn -0.081159 -0.122272 -0.989173
vn 0.364848 0.454598 -0.812543
vn 0.084011 -0.432845 0.897545
vn 0.301827 -0.935955 0.181351
vn -0.687133 0.647168 -0.330185
vn -0.776754 0.195105 -0.598821
vn -0.735505 -0.451310 -0.505323
vn 0.603476 0.646404 -0.466882
vn -0.674643 -0.217066 0.705506
vn -0.396120 -0.494990 0.773353
vn 0.141740 0.852219 -0.503620
vn 0.384962 -0.919555 0.078879
vn 0.293139 0.362208 -0.884802
vn 0.131098 0.926417 -0.352937
vn 0.711943 0.464560 0.526613
vn 0.159974 0.761708 -0.627861
vn 0.492315 -0.082785 -0.866471
vn 0.601906 0.626160 -0.495613
vn 0.384438 0.115070 -0.915951
vn 0.474160 0.814932 0.333252
vn 0.558249 0.239880 -0.794239
vn 0.416219 0.468512 -0.779268
vn -0.075432 0.233592 -0.969404
vn 0.381057 0.108754 -0.918133
vn -0.172860 0.254240 -0.951568
vn -0.072947 -0.499812 0.863057
vn 0.034451 0.438608 -0.898018
vn 0.092776 0.424734 -0.900552
vn 0.516986 0.662805 0.541678
vn -0.243362 0.380860 -0.892032
vn 0.269941 0.771441 -0.576204
vn 0.245980 0.602013 -0.759654
vn -0.660748 0.700491 -0.269674
vn 0.287683 0.793927 -0.535648
vn 0.176290 -0.971391 -0.159126
vn -0.297837 -0.271256 -0.915267
vn -0.262701 0.550762 -0.792243
vn -0.415817 -0.350302 -0.839276
vn 0.450081 -0.110037 0.886182
vn 0.624653 -0.276198 -0.730427
vn -0.253196 0.382526 -0.888575
vn -0.079363 -0.837634 -0.540435
vn 0.269825 -0.246472 -0.930831
vn -0.461650 0.139740 -0.875986
vn 0.260281 -0.959689 -0.106070
vn 0.867033 -0.489607 -0.092406
vn 0.617072 0.310723 -0.722961
vn -0.544497 0.539894 -0.641902
vn 0.202908 -0.145054 0.968395
vn -0.256182 0.097111 -0.961738
vn 0.518650 0.342662 0.783317
vn -0.413342 -0.450577 -0.791283
vn 0.253595 0.051373 -0.965945
vn 0.277805 -0.202974 -0.938949
vn 0.262909 0.840338 -0.474036
vn -0.074882 -0.343869 -0.936027
vn 0.478321 0.198228 -0.855520
vn -0.048040 -0.399623 -0.915420
vn -0.073574 -0.320405 -0.944419
vn 0.233320 -0.187802 -0.954092
vn 0.242836 -0.108492 -0.963981
vn 0.890235 0.089243 -0.446673
vn 0.243135 -0.351421 -0.904095
vn 0.322596 -0.292683 -0.900149
vn 0.171677 0.738224 -0.652343
vn -0.442668 0.070807 -0.893886
vn -0.322773 -0.834923 0.445781
vn -0.418020 -0.039619 -0.907574
vn -0.082202 -0.209252 -0.974401
vn -0.228663 0.328384 -0.916448
vn 0.770344 -0.192806 -0.607779
vn -0.528651 -0.270595 -0.804554
vn -0.276399 -0.140415 -0.950730
vn -0.060922 0.078528 -0.995049
vn 0.535603 0.141409 -0.832546
vn -0.206773 -0.970486 -0.124105
vn -0.071772 -0.984123 0.162326
vn -0.840968 -0.422246 0.338351
vn -0.156964 -0.986988 0.034887
vn -0.153082 -0.988102 0.014822
vn 0.000940 -0.967459 0.253026
vn 0.123847 -0.988063 -0.091616
vn 0.114532 -0.963365 0.242508
vn -0.114258 -0.992536 0.042628
vn 0.311489 -0.949613 -0.034781
vn -0.817039 -0.416669 0.398541
vn -0.180881 -0.983058 0.029638
vn -0.001464 -0.998745 -0.050072
vn 0.015697 -0.998417 0.054005
vn -0.515814 -0.599859 0.611641
vn -0.490370 -0.570559 -0.658786
vn -0.569658 -0.784196 -0.246021
vn 0.348577 -0.915249 0.202021
vn -0.248733 0.428185 0.868786
vn -0.577518 -0.811792 0.086411
vn -0.592077 0.787488 -0.171197
vn 0.247940 -0.965232 0.082781
vn -0.592347 -0.803231 0.062810
vn -0.088618 -0.982073 -0.166373
vn -0.096998 -0.936532 0.336897
vn -0.528147 -0.742466 0.412075
vn 0.202745 -0.979024 0.020173
vn -0.440766 -0.894495 0.074863
vn 0.522306 -0.851721 -0.042052
vn -0.284226 -0.679467 0.676418
vn -0.118968 -0.900192 -0.418929
vn -0.480154 -0.873215 -0.083347
vn 0.919996 0.379395 0.098321
vn 0.464757 0.010310 0.885378
vn -0.572659 -0.595899 -0.562997
vn -0.201531 -0.978960 -0.031970
vn 0.020628 -0.997718 0.064294
vn 0.022627 -0.998012 0.058830
vn 0.327178 -0.475556 -0.816579
vn 0.156411 0.609629 0.777102
vn -0.346260 -0.832850 -0.431815
vn 0.655192 -0.282353 -0.700714
vn -0.001676 -0.999649 0.026438
vn 0.134069 -0.983548 -0.121072
vn -0.419445 -0.900128 -0.117625
usemtl Bunny_mat
s off
f 61//2 6//2 26//2
f 111//3 6//3 61//3
f 60//4 11//4 109//4
f 33//5 152//5 83//5
f 85//6 130//6 51//6
f 51//7 43//7 75//7
f 109//8 11//8 19//8
f 71//9 66//9 25//9
f 106//10 100//10 103//10
f 94//11 6//11 111//11
f 56//12 48//12 49//12
f 95//13 60//13 111//13
f 89//14 87//14 90//14
f 60//15 111//15 61//15
f 30//16 8//16 153//16
f 72//17 78//17 93//17
f 86//18 5//18 116//18
f 29//19 66//19 151//19
f 57//20 20//20 28//20
f 9//21 153//21 8//21
f 136//22 47//22 44//22
f 74//23 152//23 119//23
f 151//24 76//24 22//24
f 76//25 152//25 14//25
f 84//26 63//26 141//26
f 128//27 73//27 43//27
f 29//28 151//28 22//28
f 14//29 22//29 76//29
f 64//30 104//30 67//30
f 65//31 33//31 83//31
f 100//32 107//32 44//32
f 38//33 15//33 35//33
f 83//34 33//34 150//34
f 60//35 61//35 11//35
f 22//36 17//36 29//36
f 17//37 22//37 14//37
f 152//38 10//38 14//38
f 18//39 29//39 17//39
f 29//40 18//40 26//40
f 16//41 29//41 26//41
f 10//42 152//42 33//42
f 35//43 15//43 13//43
f 32//44 5//44 86//44
f 156//45 10//45 33//45
f 11//46 28//46 19//46
f 17//47 14//47 12//47
f 12//48 14//48 10//48
f 5//49 32//49 116//49
f 23//50 106//50 103//50
f 17//51 77//51 18//51
f 61//52 27//52 11//52
f 55//53 54//53 43//53
f 57//54 28//54 11//54
f 60//55 109//55 19//55
f 10//56 154//56 12//56
f 61//57 26//57 27//57
f 43//58 51//58 128//58
f 141//59 143//59 149//59
f 154//60 7//60 12//60
f 27//61 26//61 70//61
f 77//62 9//62 18//62
f 13//63 18//63 9//63
f 100//64 107//64 53//64
f 70//65 15//65 27//65
f 153//66 9//66 7//66
f 27//67 57//67 11//67
f 9//68 8//68 13//68
f 70//69 13//69 15//69
f 27//70 15//70 57//70
f 57//71 38//71 20//71
f 38//72 57//72 15//72
f 30//73 153//73 144//73
f 46//74 106//74 23//74
f 25//75 66//75 29//75
f 116//76 86//76 32//76
f 71//77 25//77 37//77
f 147//78 34//78 36//78
f 33//79 65//79 150//79
f 16//80 37//80 25//80
f 159//81 5//81 116//81
f 29//82 16//82 25//82
f 50//83 37//83 16//83
f 35//84 8//84 30//84
f 27//85 70//85 57//85
f 68//86 56//86 130//86
f 98//87 158//87 157//87
f 147//88 107//88 100//88
f 126//89 105//89 96//89
f 23//90 58//90 46//90
f 5//91 159//91 97//91
f 147//92 100//92 106//92
f 38//93 36//93 39//93
f 32//94 86//94 157//94
f 35//95 13//95 8//95
f 153//96 7//96 148//96
f 35//97 147//97 36//97
f 39//98 20//98 38//98
f 42//99 39//99 46//99
f 34//100 106//100 62//100
f 157//101 116//101 32//101
f 40//102 42//102 58//102
f 28//103 42//103 40//103
f 112//104 135//104 113//104
f 42//105 28//105 20//105
f 147//106 30//106 144//106
f 36//107 38//107 35//107
f 7//108 154//108 148//108
f 62//109 39//109 36//109
f 35//110 30//110 147//110
f 46//111 39//111 62//111
f 36//112 34//112 62//112
f 86//113 50//113 157//113
f 39//114 42//114 20//114
f 94//115 111//115 99//115
f 84//116 63//116 149//116
f 120//117 56//117 48//117
f 84//118 149//118 83//118
f 133//119 114//119 115//119
f 155//120 54//120 90//120
f 126//121 52//121 45//121
f 45//122 121//122 126//122
f 116//123 159//123 32//123
f 43//124 54//124 75//124
f 67//125 104//125 84//125
f 52//126 47//126 107//126
f 90//127 55//127 91//127
f 45//128 134//128 114//128
f 153//129 142//129 144//129
f 54//130 55//130 90//130
f 134//131 133//131 114//131
f 79//132 80//132 49//132
f 136//133 45//133 47//133
f 79//134 49//134 68//134
f 128//135 43//135 55//135
f 53//136 107//136 52//136
f 47//137 45//137 52//137
f 53//138 103//138 100//138
f 115//139 133//139 131//139
f 68//140 127//140 79//140
f 46//141 58//141 42//141
f 85//142 48//142 56//142
f 62//143 106//143 46//143
f 107//144 144//144 44//144
f 88//145 72//145 93//145
f 34//146 147//146 106//146
f 147//147 144//147 107//147
f 50//148 16//148 98//148
f 98//149 16//149 158//149
f 120//150 110//150 158//150
f 118//151 113//151 135//151
f 69//152 85//152 41//152
f 6//153 110//153 158//153
f 141//154 67//154 63//154
f 50//155 98//155 59//155
f 41//156 85//156 51//156
f 16//157 6//157 158//157
f 6//158 16//158 26//158
f 21//159 59//159 98//159
f 50//160 59//160 71//160
f 21//161 81//161 59//161
f 23//162 109//162 58//162
f 81//163 85//163 69//163
f 71//164 37//164 50//164
f 58//165 19//165 28//165
f 19//166 58//166 109//166
f 90//167 91//167 89//167
f 40//168 58//168 28//168
f 70//169 26//169 18//169
f 149//170 63//170 65//170
f 130//171 73//171 128//171
f 49//172 80//172 56//172
f 156//173 33//173 150//173
f 13//174 70//174 18//174
f 17//175 12//175 77//175
f 86//176 157//176 98//176
f 59//177 66//177 71//177
f 124//178 31//178 123//178
f 77//179 7//179 9//179
f 31//180 89//180 91//180
f 69//181 151//181 66//181
f 116//182 157//182 86//182
f 150//183 149//183 143//183
f 80//184 79//184 127//184
f 75//185 74//185 119//185
f 152//186 76//186 75//186
f 51//187 130//187 128//187
f 124//188 82//188 118//188
f 12//189 7//189 77//189
f 10//190 156//190 154//190
f 152//191 75//191 119//191
f 56//192 68//192 49//192
f 78//193 92//193 24//193
f 104//194 141//194 67//194
f 41//195 76//195 69//195
f 66//196 81//196 69//196
f 59//197 81//197 66//197
f 141//198 84//198 67//198
f 74//199 54//199 119//199
f 54//200 74//200 75//200
f 76//201 41//201 75//201
f 68//202 80//202 127//202
f 85//203 81//203 21//203
f 105//204 101//204 96//204
f 123//205 24//205 92//205
f 82//206 123//206 117//206
f 72//207 88//207 105//207
f 68//208 56//208 80//208
f 92//209 78//209 129//209
f 124//210 24//210 123//210
f 51//211 75//211 41//211
f 113//212 132//212 104//212
f 112//213 113//213 82//213
f 83//214 149//214 65//214
f 82//215 113//215 118//215
f 112//216 82//216 118//216
f 124//217 123//217 82//217
f 111//218 95//218 99//218
f 5//219 97//219 116//219
f 21//220 98//220 158//220
f 99//221 95//221 102//221
f 78//222 88//222 93//222
f 138//223 141//223 112//223
f 67//224 118//224 104//224
f 48//225 85//225 21//225
f 85//226 56//226 130//226
f 23//227 103//227 95//227
f 126//228 108//228 96//228
f 99//229 102//229 103//229
f 109//230 95//230 60//230
f 142//231 136//231 44//231
f 108//232 99//232 102//232
f 110//233 6//233 94//233
f 48//234 21//234 120//234
f 88//235 93//235 110//235
f 114//236 121//236 45//236
f 95//237 109//237 23//237
f 108//238 102//238 53//238
f 48//239 21//239 158//239
f 103//240 53//240 102//240
f 95//241 103//241 102//241
f 99//242 108//242 94//242
f 108//243 53//243 52//243
f 78//244 73//244 130//244
f 130//245 93//245 120//245
f 130//246 93//246 78//246
f 101//247 94//247 108//247
f 113//248 104//248 135//248
f 101//249 110//249 94//249
f 101//250 88//250 110//250
f 120//251 110//251 93//251
f 64//252 104//252 139//252
f 101//253 105//253 88//253
f 141//254 138//254 143//254
f 97//255 159//255 116//255
f 105//256 129//256 72//256
f 125//257 89//257 31//257
f 55//258 73//258 130//258
f 44//259 47//259 52//259
f 24//260 31//260 55//260
f 140//261 45//261 136//261
f 130//262 56//262 120//262
f 55//263 31//263 91//263
f 138//264 145//264 143//264
f 134//265 45//265 140//265
f 108//266 52//266 96//266
f 139//267 104//267 132//267
f 78//268 73//268 24//268
f 135//269 104//269 118//269
f 125//270 123//270 31//270
f 125//271 118//271 89//271
f 121//272 105//272 126//272
f 121//273 114//273 115//273
f 129//274 78//274 72//274
f 124//275 125//275 31//275
f 129//276 105//276 121//276
f 131//277 122//277 115//277
f 118//278 125//278 124//278
f 122//279 121//279 115//279
f 122//280 129//280 121//280
f 52//281 107//281 44//281
f 131//282 112//282 117//282
f 131//283 117//283 122//283
f 96//284 101//284 108//284
f 128//285 73//285 55//285
f 96//286 101//286 88//286
f 55//287 73//287 24//287
f 122//288 117//288 123//288
f 31//289 24//289 123//289
f 48//290 158//290 120//290
f 117//291 112//291 82//291
f 92//292 129//292 122//292
f 122//293 123//293 92//293
f 52//294 126//294 96//294
f 148//295 142//295 153//295
f 131//296 133//296 138//296
f 90//297 87//297 155//297
f 137//298 146//298 145//298
f 142//299 148//299 140//299
f 65//300 149//300 150//300
f 140//301 136//301 142//301
f 146//302 140//302 148//302
f 133//303 145//303 138//303
f 144//304 142//304 44//304
f 155//305 119//305 54//305
f 138//306 112//306 131//306
f 154//307 156//307 146//307
f 133//308 134//308 137//308
f 69//309 76//309 151//309
f 67//310 89//310 118//310
f 84//311 87//311 89//311
f 148//312 154//312 146//312
f 84//313 89//313 67//313
f 155//314 87//314 84//314
f 44//315 144//315 147//315
f 143//316 145//316 150//316
f 155//317 84//317 83//317
f 156//318 145//318 146//318
f 119//319 155//319 152//319
f 119//320 155//320 83//320
f 156//321 150//321 145//321
f 132//322 135//322 104//322
f 135//323 132//323 113//323
f 119//324 83//324 152//324
f 67//325 149//325 63//325
f 141//326 104//326 135//326
f 135//327 118//327 141//327
f 118//328 135//328 112//328
f 118//329 112//329 141//329
f 133//330 137//330 145//330
f 137//331 134//331 140//331
f 140//332 146//332 137//332
f 141//333 104//333 118//333
f 118//334 141//334 138//334
f 118//335 138//335 143//335
f 141//336 118//336 143//336
f 154//337 156//337 150//337
f 148//338 154//338 150//338
f 149//339 67//339 141//339
